{
	"asset":{
		"generator":"Khronos glTF Blender I/O v3.6.28",
		"version":"2.0"
	},
	"extensionsUsed":[
		"KHR_materials_emissive_strength"
	],
	"scene":0,
	"scenes":[
		{
			"name":"Scene",
			"nodes":[
				0,
				1,
				2,
				3,
				4,
				5,
				6,
				7,
				8,
				9,
				10,
				11,
				12,
				13
			]
		}
	],
	"nodes":[
		{
			"camera":0,
			"name":"Camera",
			"rotation":[
				-0.7071068286895752,
				0,
				0,
				0.7071068286895752
			],
			"translation":[
				0,
				71.79790496826172,
				0
			]
		},
		{
			"mesh":0,
			"name":"PaddleLeft",
			"scale":[
				0.20000000298023224,
				0.5,
				2.5
			],
			"translation":[
				-16,
				0,
				0
			]
		},
		{
			"mesh":1,
			"name":"PaddleRight",
			"scale":[
				0.20000000298023224,
				0.5,
				2.5
			],
			"translation":[
				16,
				0,
				0
			]
		},
		{
			"mesh":2,
			"name":"Ball",
			"scale":[
				0.30000001192092896,
				0.30000001192092896,
				0.30000001192092896
			],
			"translation":[
				4.862819671630859,
				0,
				0
			]
		},
		{
			"mesh":3,
			"name":"Filet",
			"scale":[
				0.30000001192092896,
				0.30000001192092896,
				0.30000001192092896
			],
			"translation":[
				0,
				-1.0931133031845093,
				7.765374183654785
			]
		},
		{
			"mesh":4,
			"name":"Plane",
			"scale":[
				41.20558166503906,
				21.675647735595703,
				21.675647735595703
			],
			"translation":[
				-0.2638666331768036,
				-0.9035043120384216,
				0
			]
		},
		{
			"mesh":5,
			"name":"Wall",
			"rotation":[
				0,
				0.7071068286895752,
				0,
				0.7071068286895752
			],
			"scale":[
				0.20000000298023224,
				0.5,
				2.5
			],
			"translation":[
				0,
				0,
				-8.32291316986084
			]
		},
		{
			"mesh":6,
			"name":"Wall.001",
			"rotation":[
				0,
				0.7071068286895752,
				0,
				0.7071068286895752
			],
			"scale":[
				0.20000000298023224,
				0.5,
				2.5
			],
			"translation":[
				0,
				0,
				8.32291030883789
			]
		},
		{
			"mesh":7,
			"name":"0 L",
			"scale":[
				2.5774877071380615,
				2.5774877071380615,
				2.5774877071380615
			],
			"translation":[
				-3.6397500038146973,
				0,
				-5.466200828552246
			]
		},
		{
			"mesh":8,
			"name":"1 L",
			"scale":[
				2.5774877071380615,
				2.5774877071380615,
				2.5774877071380615
			],
			"translation":[
				-3.639754056930542,
				0,
				-5.466200828552246
			]
		},
		{
			"mesh":9,
			"name":"2 L",
			"scale":[
				2.5774877071380615,
				2.5774877071380615,
				2.5774877071380615
			],
			"translation":[
				-3.639754056930542,
				0,
				-5.466200828552246
			]
		},
		{
			"mesh":10,
			"name":"0 R",
			"scale":[
				2.5774877071380615,
				2.5774877071380615,
				2.5774877071380615
			],
			"translation":[
				1.9443273544311523,
				0,
				-5.466200828552246
			]
		},
		{
			"mesh":11,
			"name":"1 R",
			"scale":[
				2.5774877071380615,
				2.5774877071380615,
				2.5774877071380615
			],
			"translation":[
				1.9443273544311523,
				0,
				-5.466200828552246
			]
		},
		{
			"mesh":12,
			"name":"2 R",
			"scale":[
				2.5774877071380615,
				2.5774877071380615,
				2.5774877071380615
			],
			"translation":[
				1.9443273544311523,
				0,
				-5.466200828552246
			]
		}
	],
	"cameras":[
		{
			"name":"Camera",
			"perspective":{
				"aspectRatio":1.7777777777777777,
				"yfov":0.39959648408210363,
				"zfar":100,
				"znear":0.10000000149011612
			},
			"type":"perspective"
		}
	],
	"materials":[
		{
			"doubleSided":true,
			"emissiveFactor":[
				1,
				1,
				1
			],
			"extensions":{
				"KHR_materials_emissive_strength":{
					"emissiveStrength":2.0999999046325684
				}
			},
			"name":"White Glow",
			"pbrMetallicRoughness":{
				"baseColorFactor":[
					0.800000011920929,
					0.800000011920929,
					0.800000011920929,
					1
				],
				"metallicFactor":0,
				"roughnessFactor":0.4000000059604645
			}
		},
		{
			"doubleSided":true,
			"emissiveFactor":[
				1,
				1,
				1
			],
			"extensions":{
				"KHR_materials_emissive_strength":{
					"emissiveStrength":2
				}
			},
			"name":"Ball",
			"pbrMetallicRoughness":{
				"baseColorFactor":[
					0.800000011920929,
					0.800000011920929,
					0.800000011920929,
					1
				],
				"metallicFactor":0,
				"roughnessFactor":0.5
			}
		},
		{
			"doubleSided":true,
			"emissiveFactor":[
				0.10211275517940521,
				0.10211275517940521,
				0.10211275517940521
			],
			"name":"Boundry",
			"pbrMetallicRoughness":{
				"baseColorFactor":[
					0.800000011920929,
					0.800000011920929,
					0.800000011920929,
					1
				],
				"metallicFactor":0,
				"roughnessFactor":0.5
			}
		},
		{
			"doubleSided":true,
			"name":"Ground",
			"pbrMetallicRoughness":{
				"baseColorFactor":[
					0.800000011920929,
					0.800000011920929,
					0.800000011920929,
					1
				],
				"metallicFactor":0,
				"roughnessFactor":0.3659003973007202
			}
		}
	],
	"meshes":[
		{
			"name":"Cube",
			"primitives":[
				{
					"attributes":{
						"POSITION":0,
						"NORMAL":1,
						"TEXCOORD_0":2
					},
					"indices":3,
					"material":0
				}
			]
		},
		{
			"name":"Cube.001",
			"primitives":[
				{
					"attributes":{
						"POSITION":4,
						"NORMAL":5,
						"TEXCOORD_0":6
					},
					"indices":3,
					"material":0
				}
			]
		},
		{
			"name":"Cube.002",
			"primitives":[
				{
					"attributes":{
						"POSITION":7,
						"NORMAL":8,
						"TEXCOORD_0":9
					},
					"indices":10,
					"material":1
				}
			]
		},
		{
			"name":"Cube.005",
			"primitives":[
				{
					"attributes":{
						"POSITION":11,
						"NORMAL":12,
						"TEXCOORD_0":13
					},
					"indices":14,
					"material":2
				}
			]
		},
		{
			"name":"Plane.001",
			"primitives":[
				{
					"attributes":{
						"POSITION":15,
						"NORMAL":16,
						"TEXCOORD_0":17
					},
					"indices":18,
					"material":3
				}
			]
		},
		{
			"name":"Cube.003",
			"primitives":[
				{
					"attributes":{
						"POSITION":19,
						"NORMAL":20,
						"TEXCOORD_0":21
					},
					"indices":3,
					"material":0
				}
			]
		},
		{
			"name":"Cube.004",
			"primitives":[
				{
					"attributes":{
						"POSITION":22,
						"NORMAL":23,
						"TEXCOORD_0":24
					},
					"indices":3,
					"material":0
				}
			]
		},
		{
			"name":"Text.002",
			"primitives":[
				{
					"attributes":{
						"POSITION":25,
						"NORMAL":26,
						"TEXCOORD_0":27
					},
					"indices":28,
					"material":0
				}
			]
		},
		{
			"name":"Text.003",
			"primitives":[
				{
					"attributes":{
						"POSITION":29,
						"NORMAL":30,
						"TEXCOORD_0":31
					},
					"indices":32,
					"material":0
				}
			]
		},
		{
			"name":"Text.004",
			"primitives":[
				{
					"attributes":{
						"POSITION":33,
						"NORMAL":34,
						"TEXCOORD_0":35
					},
					"indices":36,
					"material":0
				}
			]
		},
		{
			"name":"Text.005",
			"primitives":[
				{
					"attributes":{
						"POSITION":37,
						"NORMAL":38,
						"TEXCOORD_0":39
					},
					"indices":28,
					"material":0
				}
			]
		},
		{
			"name":"Text.006",
			"primitives":[
				{
					"attributes":{
						"POSITION":40,
						"NORMAL":41,
						"TEXCOORD_0":42
					},
					"indices":32,
					"material":0
				}
			]
		},
		{
			"name":"Text.007",
			"primitives":[
				{
					"attributes":{
						"POSITION":43,
						"NORMAL":44,
						"TEXCOORD_0":45
					},
					"indices":36,
					"material":0
				}
			]
		}
	],
	"accessors":[
		{
			"bufferView":0,
			"componentType":5126,
			"count":24,
			"max":[
				1,
				1,
				1
			],
			"min":[
				-1,
				-1,
				-1
			],
			"type":"VEC3"
		},
		{
			"bufferView":1,
			"componentType":5126,
			"count":24,
			"type":"VEC3"
		},
		{
			"bufferView":2,
			"componentType":5126,
			"count":24,
			"type":"VEC2"
		},
		{
			"bufferView":3,
			"componentType":5123,
			"count":36,
			"type":"SCALAR"
		},
		{
			"bufferView":4,
			"componentType":5126,
			"count":24,
			"max":[
				1,
				1,
				1
			],
			"min":[
				-1,
				-1,
				-1
			],
			"type":"VEC3"
		},
		{
			"bufferView":5,
			"componentType":5126,
			"count":24,
			"type":"VEC3"
		},
		{
			"bufferView":6,
			"componentType":5126,
			"count":24,
			"type":"VEC2"
		},
		{
			"bufferView":7,
			"componentType":5126,
			"count":24,
			"max":[
				1,
				1,
				1
			],
			"min":[
				-1,
				-1,
				-1
			],
			"type":"VEC3"
		},
		{
			"bufferView":8,
			"componentType":5126,
			"count":24,
			"type":"VEC3"
		},
		{
			"bufferView":9,
			"componentType":5126,
			"count":24,
			"type":"VEC2"
		},
		{
			"bufferView":10,
			"componentType":5123,
			"count":36,
			"type":"SCALAR"
		},
		{
			"bufferView":11,
			"componentType":5126,
			"count":336,
			"max":[
				1,
				1,
				1
			],
			"min":[
				-1,
				-1,
				-53
			],
			"type":"VEC3"
		},
		{
			"bufferView":12,
			"componentType":5126,
			"count":336,
			"type":"VEC3"
		},
		{
			"bufferView":13,
			"componentType":5126,
			"count":336,
			"type":"VEC2"
		},
		{
			"bufferView":14,
			"componentType":5123,
			"count":504,
			"type":"SCALAR"
		},
		{
			"bufferView":15,
			"componentType":5126,
			"count":4,
			"max":[
				1,
				0,
				1
			],
			"min":[
				-1,
				0,
				-1
			],
			"type":"VEC3"
		},
		{
			"bufferView":16,
			"componentType":5126,
			"count":4,
			"type":"VEC3"
		},
		{
			"bufferView":17,
			"componentType":5126,
			"count":4,
			"type":"VEC2"
		},
		{
			"bufferView":18,
			"componentType":5123,
			"count":6,
			"type":"SCALAR"
		},
		{
			"bufferView":19,
			"componentType":5126,
			"count":24,
			"max":[
				1.0000035762786865,
				1,
				8.436607360839844
			],
			"min":[
				-1.0000040531158447,
				-1,
				-7.654234409332275
			],
			"type":"VEC3"
		},
		{
			"bufferView":20,
			"componentType":5126,
			"count":24,
			"type":"VEC3"
		},
		{
			"bufferView":21,
			"componentType":5126,
			"count":24,
			"type":"VEC2"
		},
		{
			"bufferView":22,
			"componentType":5126,
			"count":24,
			"max":[
				1.0000035762786865,
				1,
				8.436607360839844
			],
			"min":[
				-1.0000040531158447,
				-1,
				-7.654234409332275
			],
			"type":"VEC3"
		},
		{
			"bufferView":23,
			"componentType":5126,
			"count":24,
			"type":"VEC3"
		},
		{
			"bufferView":24,
			"componentType":5126,
			"count":24,
			"type":"VEC2"
		},
		{
			"bufferView":25,
			"componentType":5126,
			"count":202,
			"max":[
				0.6405228972434998,
				0,
				0
			],
			"min":[
				0.046568628400564194,
				0,
				-0.5882353186607361
			],
			"type":"VEC3"
		},
		{
			"bufferView":26,
			"componentType":5126,
			"count":202,
			"type":"VEC3"
		},
		{
			"bufferView":27,
			"componentType":5126,
			"count":202,
			"type":"VEC2"
		},
		{
			"bufferView":28,
			"componentType":5123,
			"count":612,
			"type":"SCALAR"
		},
		{
			"bufferView":29,
			"componentType":5126,
			"count":4,
			"max":[
				0.30000001192092896,
				0,
				0
			],
			"min":[
				0.20200000703334808,
				0,
				-0.6820000410079956
			],
			"type":"VEC3"
		},
		{
			"bufferView":30,
			"componentType":5126,
			"count":4,
			"type":"VEC3"
		},
		{
			"bufferView":31,
			"componentType":5126,
			"count":4,
			"type":"VEC2"
		},
		{
			"bufferView":32,
			"componentType":5123,
			"count":6,
			"type":"SCALAR"
		},
		{
			"bufferView":33,
			"componentType":5126,
			"count":89,
			"max":[
				0.4660000205039978,
				0,
				0
			],
			"min":[
				0.03400000184774399,
				0,
				-0.6910000443458557
			],
			"type":"VEC3"
		},
		{
			"bufferView":34,
			"componentType":5126,
			"count":89,
			"type":"VEC3"
		},
		{
			"bufferView":35,
			"componentType":5126,
			"count":89,
			"type":"VEC2"
		},
		{
			"bufferView":36,
			"componentType":5123,
			"count":261,
			"type":"SCALAR"
		},
		{
			"bufferView":37,
			"componentType":5126,
			"count":202,
			"max":[
				0.6405228972434998,
				0,
				0
			],
			"min":[
				0.046568628400564194,
				0,
				-0.5882353186607361
			],
			"type":"VEC3"
		},
		{
			"bufferView":38,
			"componentType":5126,
			"count":202,
			"type":"VEC3"
		},
		{
			"bufferView":39,
			"componentType":5126,
			"count":202,
			"type":"VEC2"
		},
		{
			"bufferView":40,
			"componentType":5126,
			"count":4,
			"max":[
				0.30000001192092896,
				0,
				0
			],
			"min":[
				0.20200000703334808,
				0,
				-0.6820000410079956
			],
			"type":"VEC3"
		},
		{
			"bufferView":41,
			"componentType":5126,
			"count":4,
			"type":"VEC3"
		},
		{
			"bufferView":42,
			"componentType":5126,
			"count":4,
			"type":"VEC2"
		},
		{
			"bufferView":43,
			"componentType":5126,
			"count":89,
			"max":[
				0.4660000205039978,
				0,
				0
			],
			"min":[
				0.03400000184774399,
				0,
				-0.6910000443458557
			],
			"type":"VEC3"
		},
		{
			"bufferView":44,
			"componentType":5126,
			"count":89,
			"type":"VEC3"
		},
		{
			"bufferView":45,
			"componentType":5126,
			"count":89,
			"type":"VEC2"
		}
	],
	"bufferViews":[
		{
			"buffer":0,
			"byteLength":288,
			"byteOffset":0,
			"target":34962
		},
		{
			"buffer":0,
			"byteLength":288,
			"byteOffset":288,
			"target":34962
		},
		{
			"buffer":0,
			"byteLength":192,
			"byteOffset":576,
			"target":34962
		},
		{
			"buffer":0,
			"byteLength":72,
			"byteOffset":768,
			"target":34963
		},
		{
			"buffer":0,
			"byteLength":288,
			"byteOffset":840,
			"target":34962
		},
		{
			"buffer":0,
			"byteLength":288,
			"byteOffset":1128,
			"target":34962
		},
		{
			"buffer":0,
			"byteLength":192,
			"byteOffset":1416,
			"target":34962
		},
		{
			"buffer":0,
			"byteLength":288,
			"byteOffset":1608,
			"target":34962
		},
		{
			"buffer":0,
			"byteLength":288,
			"byteOffset":1896,
			"target":34962
		},
		{
			"buffer":0,
			"byteLength":192,
			"byteOffset":2184,
			"target":34962
		},
		{
			"buffer":0,
			"byteLength":72,
			"byteOffset":2376,
			"target":34963
		},
		{
			"buffer":0,
			"byteLength":4032,
			"byteOffset":2448,
			"target":34962
		},
		{
			"buffer":0,
			"byteLength":4032,
			"byteOffset":6480,
			"target":34962
		},
		{
			"buffer":0,
			"byteLength":2688,
			"byteOffset":10512,
			"target":34962
		},
		{
			"buffer":0,
			"byteLength":1008,
			"byteOffset":13200,
			"target":34963
		},
		{
			"buffer":0,
			"byteLength":48,
			"byteOffset":14208,
			"target":34962
		},
		{
			"buffer":0,
			"byteLength":48,
			"byteOffset":14256,
			"target":34962
		},
		{
			"buffer":0,
			"byteLength":32,
			"byteOffset":14304,
			"target":34962
		},
		{
			"buffer":0,
			"byteLength":12,
			"byteOffset":14336,
			"target":34963
		},
		{
			"buffer":0,
			"byteLength":288,
			"byteOffset":14348,
			"target":34962
		},
		{
			"buffer":0,
			"byteLength":288,
			"byteOffset":14636,
			"target":34962
		},
		{
			"buffer":0,
			"byteLength":192,
			"byteOffset":14924,
			"target":34962
		},
		{
			"buffer":0,
			"byteLength":288,
			"byteOffset":15116,
			"target":34962
		},
		{
			"buffer":0,
			"byteLength":288,
			"byteOffset":15404,
			"target":34962
		},
		{
			"buffer":0,
			"byteLength":192,
			"byteOffset":15692,
			"target":34962
		},
		{
			"buffer":0,
			"byteLength":2424,
			"byteOffset":15884,
			"target":34962
		},
		{
			"buffer":0,
			"byteLength":2424,
			"byteOffset":18308,
			"target":34962
		},
		{
			"buffer":0,
			"byteLength":1616,
			"byteOffset":20732,
			"target":34962
		},
		{
			"buffer":0,
			"byteLength":1224,
			"byteOffset":22348,
			"target":34963
		},
		{
			"buffer":0,
			"byteLength":48,
			"byteOffset":23572,
			"target":34962
		},
		{
			"buffer":0,
			"byteLength":48,
			"byteOffset":23620,
			"target":34962
		},
		{
			"buffer":0,
			"byteLength":32,
			"byteOffset":23668,
			"target":34962
		},
		{
			"buffer":0,
			"byteLength":12,
			"byteOffset":23700,
			"target":34963
		},
		{
			"buffer":0,
			"byteLength":1068,
			"byteOffset":23712,
			"target":34962
		},
		{
			"buffer":0,
			"byteLength":1068,
			"byteOffset":24780,
			"target":34962
		},
		{
			"buffer":0,
			"byteLength":712,
			"byteOffset":25848,
			"target":34962
		},
		{
			"buffer":0,
			"byteLength":522,
			"byteOffset":26560,
			"target":34963
		},
		{
			"buffer":0,
			"byteLength":2424,
			"byteOffset":27084,
			"target":34962
		},
		{
			"buffer":0,
			"byteLength":2424,
			"byteOffset":29508,
			"target":34962
		},
		{
			"buffer":0,
			"byteLength":1616,
			"byteOffset":31932,
			"target":34962
		},
		{
			"buffer":0,
			"byteLength":48,
			"byteOffset":33548,
			"target":34962
		},
		{
			"buffer":0,
			"byteLength":48,
			"byteOffset":33596,
			"target":34962
		},
		{
			"buffer":0,
			"byteLength":32,
			"byteOffset":33644,
			"target":34962
		},
		{
			"buffer":0,
			"byteLength":1068,
			"byteOffset":33676,
			"target":34962
		},
		{
			"buffer":0,
			"byteLength":1068,
			"byteOffset":34744,
			"target":34962
		},
		{
			"buffer":0,
			"byteLength":712,
			"byteOffset":35812,
			"target":34962
		}
	],
	"buffers":[
		{
			"byteLength":36524,
			"uri":"data:application/octet-stream;base64,"
		}
	]
}
