{
	"asset":{
		"generator":"Khronos glTF Blender I/O v3.6.28",
		"version":"2.0"
	},
	"extensionsUsed":[
		"KHR_materials_emissive_strength"
	],
	"scene":0,
	"scenes":[
		{
			"name":"Scene",
			"nodes":[
				0,
				1,
				2,
				3,
				4,
				5,
				6,
				7,
				8,
				9,
				10,
				11,
				12
			]
		}
	],
	"nodes":[
		{
			"mesh":0,
			"name":"PaddleLeft",
			"scale":[
				0.20000000298023224,
				0.5,
				2.5
			],
			"translation":[
				-14.463500022888184,
				0,
				-0.06811347603797913
			]
		},
		{
			"mesh":1,
			"name":"PaddleRight",
			"scale":[
				0.20000000298023224,
				0.5,
				2.5
			],
			"translation":[
				14.463500022888184,
				0,
				-0.06811347603797913
			]
		},
		{
			"mesh":2,
			"name":"Ball",
			"scale":[
				0.30000001192092896,
				0.30000001192092896,
				0.30000001192092896
			],
			"translation":[
				4.862819671630859,
				0,
				0
			]
		},
		{
			"mesh":3,
			"name":"Boundry",
			"scale":[
				0.30000001192092896,
				0.30000001192092896,
				0.30000001192092896
			],
			"translation":[
				0,
				-1.0931133031845093,
				7.765374183654785
			]
		},
		{
			"mesh":4,
			"name":"Plane",
			"scale":[
				41.20558166503906,
				21.675647735595703,
				21.675647735595703
			],
			"translation":[
				-0.2638666331768036,
				-0.9035043120384216,
				0
			]
		},
		{
			"mesh":5,
			"name":"Wall",
			"rotation":[
				0,
				0.7071068286895752,
				0,
				0.7071068286895752
			],
			"scale":[
				0.20000000298023224,
				0.5,
				2.5
			],
			"translation":[
				-0.5,
				0,
				-8.5
			]
		},
		{
			"mesh":6,
			"name":"Wall.001",
			"rotation":[
				0,
				0.7071068286895752,
				0,
				0.7071068286895752
			],
			"scale":[
				0.20000000298023224,
				0.5,
				2.5
			],
			"translation":[
				-0.5,
				0,
				8.5
			]
		},
		{
			"mesh":7,
			"name":"0 L",
			"scale":[
				2.5774877071380615,
				2.5774877071380615,
				2.5774877071380615
			],
			"translation":[
				-3.6397500038146973,
				0,
				-5.466200828552246
			]
		},
		{
			"mesh":8,
			"name":"1 L",
			"scale":[
				2.5774877071380615,
				2.5774877071380615,
				2.5774877071380615
			],
			"translation":[
				-3.639754056930542,
				0,
				-5.466200828552246
			]
		},
		{
			"mesh":9,
			"name":"2 L",
			"scale":[
				2.5774877071380615,
				2.5774877071380615,
				2.5774877071380615
			],
			"translation":[
				-3.639754056930542,
				0,
				-5.466200828552246
			]
		},
		{
			"mesh":10,
			"name":"0 R",
			"scale":[
				2.5774877071380615,
				2.5774877071380615,
				2.5774877071380615
			],
			"translation":[
				1.9443273544311523,
				0,
				-5.466200828552246
			]
		},
		{
			"mesh":11,
			"name":"1 R",
			"scale":[
				2.5774877071380615,
				2.5774877071380615,
				2.5774877071380615
			],
			"translation":[
				1.9443273544311523,
				0,
				-5.466200828552246
			]
		},
		{
			"mesh":12,
			"name":"2 R",
			"scale":[
				2.5774877071380615,
				2.5774877071380615,
				2.5774877071380615
			],
			"translation":[
				1.9443273544311523,
				0,
				-5.466200828552246
			]
		}
	],
	"materials":[
		{
			"doubleSided":true,
			"emissiveFactor":[
				1,
				1,
				1
			],
			"extensions":{
				"KHR_materials_emissive_strength":{
					"emissiveStrength":2.0999999046325684
				}
			},
			"name":"White Glow",
			"pbrMetallicRoughness":{
				"baseColorFactor":[
					0.800000011920929,
					0.800000011920929,
					0.800000011920929,
					1
				],
				"metallicFactor":0,
				"roughnessFactor":0.4000000059604645
			}
		},
		{
			"doubleSided":true,
			"emissiveFactor":[
				0.10211275517940521,
				0.10211275517940521,
				0.10211275517940521
			],
			"name":"Boundry",
			"pbrMetallicRoughness":{
				"baseColorFactor":[
					0.800000011920929,
					0.800000011920929,
					0.800000011920929,
					1
				],
				"metallicFactor":0,
				"roughnessFactor":0.5
			}
		},
		{
			"doubleSided":true,
			"name":"Ground",
			"pbrMetallicRoughness":{
				"baseColorFactor":[
					0.800000011920929,
					0.800000011920929,
					0.800000011920929,
					1
				],
				"metallicFactor":0,
				"roughnessFactor":0.3659003973007202
			}
		},
		{
			"doubleSided":true,
			"emissiveFactor":[
				1,
				1,
				1
			],
			"extensions":{
				"KHR_materials_emissive_strength":{
					"emissiveStrength":2.0999999046325684
				}
			},
			"name":"White Glow",
			"pbrMetallicRoughness":{
				"baseColorFactor":[
					0.800000011920929,
					0.800000011920929,
					0.800000011920929,
					1
				],
				"metallicFactor":0,
				"roughnessFactor":0.4000000059604645
			}
		}
	],
	"meshes":[
		{
			"name":"Cube",
			"primitives":[
				{
					"attributes":{
						"POSITION":0,
						"NORMAL":1
					},
					"indices":2,
					"material":0
				}
			]
		},
		{
			"name":"Cube.001",
			"primitives":[
				{
					"attributes":{
						"POSITION":3,
						"NORMAL":4
					},
					"indices":2,
					"material":0
				}
			]
		},
		{
			"name":"Cube.002",
			"primitives":[
				{
					"attributes":{
						"POSITION":5,
						"NORMAL":6
					},
					"indices":2,
					"material":0
				}
			]
		},
		{
			"name":"Cube.005",
			"primitives":[
				{
					"attributes":{
						"POSITION":7,
						"NORMAL":8,
						"TEXCOORD_0":9
					},
					"indices":10,
					"material":1
				}
			]
		},
		{
			"name":"Plane.001",
			"primitives":[
				{
					"attributes":{
						"POSITION":11,
						"NORMAL":12,
						"TEXCOORD_0":13
					},
					"indices":14,
					"material":2
				}
			]
		},
		{
			"name":"Cube.003",
			"primitives":[
				{
					"attributes":{
						"POSITION":15,
						"NORMAL":16,
						"TEXCOORD_0":17
					},
					"indices":18,
					"material":3
				}
			]
		},
		{
			"name":"Cube.004",
			"primitives":[
				{
					"attributes":{
						"POSITION":19,
						"NORMAL":20,
						"TEXCOORD_0":21
					},
					"indices":18,
					"material":3
				}
			]
		},
		{
			"name":"Text.002",
			"primitives":[
				{
					"attributes":{
						"POSITION":22,
						"NORMAL":23,
						"TEXCOORD_0":24
					},
					"indices":25,
					"material":3
				}
			]
		},
		{
			"name":"Text.003",
			"primitives":[
				{
					"attributes":{
						"POSITION":26,
						"NORMAL":27,
						"TEXCOORD_0":28
					},
					"indices":29,
					"material":3
				}
			]
		},
		{
			"name":"Text.004",
			"primitives":[
				{
					"attributes":{
						"POSITION":30,
						"NORMAL":31,
						"TEXCOORD_0":32
					},
					"indices":33,
					"material":3
				}
			]
		},
		{
			"name":"Text.005",
			"primitives":[
				{
					"attributes":{
						"POSITION":34,
						"NORMAL":35,
						"TEXCOORD_0":36
					},
					"indices":25,
					"material":3
				}
			]
		},
		{
			"name":"Text.006",
			"primitives":[
				{
					"attributes":{
						"POSITION":37,
						"NORMAL":38,
						"TEXCOORD_0":39
					},
					"indices":29,
					"material":3
				}
			]
		},
		{
			"name":"Text.007",
			"primitives":[
				{
					"attributes":{
						"POSITION":40,
						"NORMAL":41,
						"TEXCOORD_0":42
					},
					"indices":33,
					"material":3
				}
			]
		}
	],
	"accessors":[
		{
			"bufferView":0,
			"componentType":5126,
			"count":768,
			"max":[
				1.0299999713897705,
				1.0299999713897705,
				1.0299999713897705
			],
			"min":[
				-1.0299999713897705,
				-1.0299999713897705,
				-1.0299999713897705
			],
			"type":"VEC3"
		},
		{
			"bufferView":1,
			"componentType":5126,
			"count":768,
			"type":"VEC3"
		},
		{
			"bufferView":2,
			"componentType":5123,
			"count":2304,
			"type":"SCALAR"
		},
		{
			"bufferView":3,
			"componentType":5126,
			"count":768,
			"max":[
				1.0299999713897705,
				1.0299999713897705,
				1.0299999713897705
			],
			"min":[
				-1.0299999713897705,
				-1.0299999713897705,
				-1.0299999713897705
			],
			"type":"VEC3"
		},
		{
			"bufferView":4,
			"componentType":5126,
			"count":768,
			"type":"VEC3"
		},
		{
			"bufferView":5,
			"componentType":5126,
			"count":768,
			"max":[
				1.0299999713897705,
				1.0299999713897705,
				1.0299999713897705
			],
			"min":[
				-1.0299999713897705,
				-1.0299999713897705,
				-1.0299999713897705
			],
			"type":"VEC3"
		},
		{
			"bufferView":6,
			"componentType":5126,
			"count":768,
			"type":"VEC3"
		},
		{
			"bufferView":7,
			"componentType":5126,
			"count":336,
			"max":[
				1,
				1,
				1
			],
			"min":[
				-1,
				-1,
				-53
			],
			"type":"VEC3"
		},
		{
			"bufferView":8,
			"componentType":5126,
			"count":336,
			"type":"VEC3"
		},
		{
			"bufferView":9,
			"componentType":5126,
			"count":336,
			"type":"VEC2"
		},
		{
			"bufferView":10,
			"componentType":5123,
			"count":504,
			"type":"SCALAR"
		},
		{
			"bufferView":11,
			"componentType":5126,
			"count":4,
			"max":[
				1,
				0,
				1
			],
			"min":[
				-1,
				0,
				-1
			],
			"type":"VEC3"
		},
		{
			"bufferView":12,
			"componentType":5126,
			"count":4,
			"type":"VEC3"
		},
		{
			"bufferView":13,
			"componentType":5126,
			"count":4,
			"type":"VEC2"
		},
		{
			"bufferView":14,
			"componentType":5123,
			"count":6,
			"type":"SCALAR"
		},
		{
			"bufferView":15,
			"componentType":5126,
			"count":24,
			"max":[
				1.0000035762786865,
				1,
				8.436607360839844
			],
			"min":[
				-1.0000040531158447,
				-1,
				-7.654234409332275
			],
			"type":"VEC3"
		},
		{
			"bufferView":16,
			"componentType":5126,
			"count":24,
			"type":"VEC3"
		},
		{
			"bufferView":17,
			"componentType":5126,
			"count":24,
			"type":"VEC2"
		},
		{
			"bufferView":18,
			"componentType":5123,
			"count":36,
			"type":"SCALAR"
		},
		{
			"bufferView":19,
			"componentType":5126,
			"count":24,
			"max":[
				1.0000035762786865,
				1,
				8.436607360839844
			],
			"min":[
				-1.0000040531158447,
				-1,
				-7.654234409332275
			],
			"type":"VEC3"
		},
		{
			"bufferView":20,
			"componentType":5126,
			"count":24,
			"type":"VEC3"
		},
		{
			"bufferView":21,
			"componentType":5126,
			"count":24,
			"type":"VEC2"
		},
		{
			"bufferView":22,
			"componentType":5126,
			"count":202,
			"max":[
				0.6405228972434998,
				0,
				0
			],
			"min":[
				0.046568628400564194,
				0,
				-0.5882353186607361
			],
			"type":"VEC3"
		},
		{
			"bufferView":23,
			"componentType":5126,
			"count":202,
			"type":"VEC3"
		},
		{
			"bufferView":24,
			"componentType":5126,
			"count":202,
			"type":"VEC2"
		},
		{
			"bufferView":25,
			"componentType":5123,
			"count":612,
			"type":"SCALAR"
		},
		{
			"bufferView":26,
			"componentType":5126,
			"count":7,
			"max":[
				0.24673202633857727,
				0,
				0
			],
			"min":[
				0.0008169934735633433,
				0,
				-0.5882353186607361
			],
			"type":"VEC3"
		},
		{
			"bufferView":27,
			"componentType":5126,
			"count":7,
			"type":"VEC3"
		},
		{
			"bufferView":28,
			"componentType":5126,
			"count":7,
			"type":"VEC2"
		},
		{
			"bufferView":29,
			"componentType":5123,
			"count":15,
			"type":"SCALAR"
		},
		{
			"bufferView":30,
			"componentType":5126,
			"count":278,
			"max":[
				0.6405228972434998,
				0,
				0
			],
			"min":[
				0.046568628400564194,
				0,
				-0.5890523195266724
			],
			"type":"VEC3"
		},
		{
			"bufferView":31,
			"componentType":5126,
			"count":278,
			"type":"VEC3"
		},
		{
			"bufferView":32,
			"componentType":5126,
			"count":278,
			"type":"VEC2"
		},
		{
			"bufferView":33,
			"componentType":5123,
			"count":828,
			"type":"SCALAR"
		},
		{
			"bufferView":34,
			"componentType":5126,
			"count":202,
			"max":[
				0.6405228972434998,
				0,
				0
			],
			"min":[
				0.046568628400564194,
				0,
				-0.5882353186607361
			],
			"type":"VEC3"
		},
		{
			"bufferView":35,
			"componentType":5126,
			"count":202,
			"type":"VEC3"
		},
		{
			"bufferView":36,
			"componentType":5126,
			"count":202,
			"type":"VEC2"
		},
		{
			"bufferView":37,
			"componentType":5126,
			"count":7,
			"max":[
				0.24673202633857727,
				0,
				0
			],
			"min":[
				0.0008169934735633433,
				0,
				-0.5882353186607361
			],
			"type":"VEC3"
		},
		{
			"bufferView":38,
			"componentType":5126,
			"count":7,
			"type":"VEC3"
		},
		{
			"bufferView":39,
			"componentType":5126,
			"count":7,
			"type":"VEC2"
		},
		{
			"bufferView":40,
			"componentType":5126,
			"count":278,
			"max":[
				0.6405228972434998,
				0,
				0
			],
			"min":[
				0.046568628400564194,
				0,
				-0.5890523195266724
			],
			"type":"VEC3"
		},
		{
			"bufferView":41,
			"componentType":5126,
			"count":278,
			"type":"VEC3"
		},
		{
			"bufferView":42,
			"componentType":5126,
			"count":278,
			"type":"VEC2"
		}
	],
	"bufferViews":[
		{
			"buffer":0,
			"byteLength":9216,
			"byteOffset":0,
			"target":34962
		},
		{
			"buffer":0,
			"byteLength":9216,
			"byteOffset":9216,
			"target":34962
		},
		{
			"buffer":0,
			"byteLength":4608,
			"byteOffset":18432,
			"target":34963
		},
		{
			"buffer":0,
			"byteLength":9216,
			"byteOffset":23040,
			"target":34962
		},
		{
			"buffer":0,
			"byteLength":9216,
			"byteOffset":32256,
			"target":34962
		},
		{
			"buffer":0,
			"byteLength":9216,
			"byteOffset":41472,
			"target":34962
		},
		{
			"buffer":0,
			"byteLength":9216,
			"byteOffset":50688,
			"target":34962
		},
		{
			"buffer":0,
			"byteLength":4032,
			"byteOffset":59904,
			"target":34962
		},
		{
			"buffer":0,
			"byteLength":4032,
			"byteOffset":63936,
			"target":34962
		},
		{
			"buffer":0,
			"byteLength":2688,
			"byteOffset":67968,
			"target":34962
		},
		{
			"buffer":0,
			"byteLength":1008,
			"byteOffset":70656,
			"target":34963
		},
		{
			"buffer":0,
			"byteLength":48,
			"byteOffset":71664,
			"target":34962
		},
		{
			"buffer":0,
			"byteLength":48,
			"byteOffset":71712,
			"target":34962
		},
		{
			"buffer":0,
			"byteLength":32,
			"byteOffset":71760,
			"target":34962
		},
		{
			"buffer":0,
			"byteLength":12,
			"byteOffset":71792,
			"target":34963
		},
		{
			"buffer":0,
			"byteLength":288,
			"byteOffset":71804,
			"target":34962
		},
		{
			"buffer":0,
			"byteLength":288,
			"byteOffset":72092,
			"target":34962
		},
		{
			"buffer":0,
			"byteLength":192,
			"byteOffset":72380,
			"target":34962
		},
		{
			"buffer":0,
			"byteLength":72,
			"byteOffset":72572,
			"target":34963
		},
		{
			"buffer":0,
			"byteLength":288,
			"byteOffset":72644,
			"target":34962
		},
		{
			"buffer":0,
			"byteLength":288,
			"byteOffset":72932,
			"target":34962
		},
		{
			"buffer":0,
			"byteLength":192,
			"byteOffset":73220,
			"target":34962
		},
		{
			"buffer":0,
			"byteLength":2424,
			"byteOffset":73412,
			"target":34962
		},
		{
			"buffer":0,
			"byteLength":2424,
			"byteOffset":75836,
			"target":34962
		},
		{
			"buffer":0,
			"byteLength":1616,
			"byteOffset":78260,
			"target":34962
		},
		{
			"buffer":0,
			"byteLength":1224,
			"byteOffset":79876,
			"target":34963
		},
		{
			"buffer":0,
			"byteLength":84,
			"byteOffset":81100,
			"target":34962
		},
		{
			"buffer":0,
			"byteLength":84,
			"byteOffset":81184,
			"target":34962
		},
		{
			"buffer":0,
			"byteLength":56,
			"byteOffset":81268,
			"target":34962
		},
		{
			"buffer":0,
			"byteLength":30,
			"byteOffset":81324,
			"target":34963
		},
		{
			"buffer":0,
			"byteLength":3336,
			"byteOffset":81356,
			"target":34962
		},
		{
			"buffer":0,
			"byteLength":3336,
			"byteOffset":84692,
			"target":34962
		},
		{
			"buffer":0,
			"byteLength":2224,
			"byteOffset":88028,
			"target":34962
		},
		{
			"buffer":0,
			"byteLength":1656,
			"byteOffset":90252,
			"target":34963
		},
		{
			"buffer":0,
			"byteLength":2424,
			"byteOffset":91908,
			"target":34962
		},
		{
			"buffer":0,
			"byteLength":2424,
			"byteOffset":94332,
			"target":34962
		},
		{
			"buffer":0,
			"byteLength":1616,
			"byteOffset":96756,
			"target":34962
		},
		{
			"buffer":0,
			"byteLength":84,
			"byteOffset":98372,
			"target":34962
		},
		{
			"buffer":0,
			"byteLength":84,
			"byteOffset":98456,
			"target":34962
		},
		{
			"buffer":0,
			"byteLength":56,
			"byteOffset":98540,
			"target":34962
		},
		{
			"buffer":0,
			"byteLength":3336,
			"byteOffset":98596,
			"target":34962
		},
		{
			"buffer":0,
			"byteLength":3336,
			"byteOffset":101932,
			"target":34962
		},
		{
			"buffer":0,
			"byteLength":2224,
			"byteOffset":105268,
			"target":34962
		}
	],
	"buffers":[
		{
			"byteLength":107492,
			"uri":"data:application/octet-stream;base64,"
		}
	]
}
