<svg width="7" height="8" viewBox="0 0 7 8" fill="none" xmlns="http://www.w3.org/2000/svg">
<path d="M4.788 6.136C4.628 6.512 4.404 6.78 4.116 6.94C3.828 7.092 3.492 7.168 3.108 7.168C2.748 7.168 2.408 7.1 2.088 6.964C1.776 6.828 1.5 6.628 1.26 6.364C1.02 6.1 0.828 5.78 0.684 5.404C0.548 5.028 0.48 4.6 0.48 4.12V3.928C0.48 3.456 0.548 3.032 0.684 2.656C0.82 2.28 1.004 1.96 1.236 1.696C1.468 1.432 1.736 1.232 2.04 1.096C2.352 0.952 2.684 0.879999 3.036 0.879999C3.46 0.879999 3.8 0.952 4.056 1.096C4.32 1.24 4.528 1.464 4.68 1.768H4.896V1.048H6.408V5.2C6.408 5.44 6.516 5.56 6.732 5.56H6.96V7H5.928C5.656 7 5.432 6.92 5.256 6.76C5.088 6.6 5.004 6.392 5.004 6.136H4.788ZM3.444 5.728C3.884 5.728 4.236 5.584 4.5 5.296C4.764 5 4.896 4.6 4.896 4.096V3.952C4.896 3.448 4.764 3.052 4.5 2.764C4.236 2.468 3.884 2.32 3.444 2.32C3.004 2.32 2.652 2.468 2.388 2.764C2.124 3.052 1.992 3.448 1.992 3.952V4.096C1.992 4.6 2.124 5 2.388 5.296C2.652 5.584 3.004 5.728 3.444 5.728Z" fill="url(#paint0_linear_686_4)"/>
<defs>
<linearGradient id="paint0_linear_686_4" x1="9" y1="9" x2="-1.5" y2="-2.5" gradientUnits="userSpaceOnUse">
<stop offset="0.147737" stop-color="#561984"/>
<stop offset="1" stop-color="#FFA100"/>
</linearGradient>
</defs>
</svg>
