<svg width="6" height="8" viewBox="0 0 6 8" fill="none" xmlns="http://www.w3.org/2000/svg">
<path d="M1.832 2.728C1.832 2.92 1.932 3.06 2.132 3.148C2.332 3.228 2.696 3.296 3.224 3.352C3.832 3.416 4.328 3.6 4.712 3.904C5.096 4.2 5.288 4.616 5.288 5.152V5.224C5.288 5.816 5.072 6.288 4.64 6.64C4.208 6.992 3.6 7.168 2.816 7.168C2.352 7.168 1.956 7.108 1.628 6.988C1.3 6.868 1.028 6.72 0.812 6.544C0.596 6.36 0.428 6.16 0.308 5.944C0.196 5.72 0.12 5.504 0.08 5.296L1.472 4.84C1.536 5.096 1.668 5.32 1.868 5.512C2.076 5.704 2.392 5.8 2.816 5.8C3.192 5.8 3.448 5.744 3.584 5.632C3.728 5.512 3.8 5.384 3.8 5.248C3.8 5.168 3.78 5.096 3.74 5.032C3.708 4.96 3.644 4.896 3.548 4.84C3.452 4.776 3.32 4.724 3.152 4.684C2.992 4.644 2.788 4.612 2.54 4.588C1.868 4.532 1.332 4.36 0.932 4.072C0.54 3.776 0.344 3.344 0.344 2.776V2.704C0.344 2.408 0.408 2.148 0.536 1.924C0.664 1.7 0.832 1.512 1.04 1.36C1.248 1.2 1.488 1.08 1.76 1C2.032 0.92 2.312 0.879999 2.6 0.879999C2.976 0.879999 3.3 0.927999 3.572 1.024C3.852 1.112 4.088 1.232 4.28 1.384C4.472 1.528 4.628 1.692 4.748 1.876C4.868 2.052 4.96 2.224 5.024 2.392L3.656 2.944C3.584 2.728 3.46 2.56 3.284 2.44C3.108 2.312 2.88 2.248 2.6 2.248C2.344 2.248 2.152 2.296 2.024 2.392C1.896 2.48 1.832 2.592 1.832 2.728Z" fill="url(#paint0_linear_41_2)"/>
<defs>
<linearGradient id="paint0_linear_41_2" x1="5.5" y1="7.5" x2="4.93442" y2="-0.250617" gradientUnits="userSpaceOnUse">
<stop stop-color="#300E44"/>
<stop offset="1" stop-color="#BFD2E3"/>
</linearGradient>
</defs>
</svg>
