<svg width="14" height="16" viewBox="0 0 14 16" fill="none" xmlns="http://www.w3.org/2000/svg">
<path d="M4 2H6V0H4V2ZM8 2V0H10V2H8ZM4 10V8H6V10H4ZM12 6V4H14V6H12ZM12 10V8H14V10H12ZM8 10V8H10V10H8ZM12 2V0H14V2H12ZM6 4V2H8V4H6ZM1 16C0.716667 16 0.479 15.904 0.287 15.712C0.0956668 15.5207 0 15.2833 0 15V1C0 0.716667 0.0956668 0.479 0.287 0.287C0.479 0.0956668 0.716667 0 1 0C1.28333 0 1.521 0.0956668 1.713 0.287C1.90433 0.479 2 0.716667 2 1V2H4V4H2V6H4V8H2V15C2 15.2833 1.90433 15.5207 1.713 15.712C1.521 15.904 1.28333 16 1 16ZM10 8V6H12V8H10ZM6 8V6H8V8H6ZM4 6V4H6V6H4ZM8 6V4H10V6H8ZM10 4V2H12V4H10Z" fill="white"/>
</svg>
